<svg width="18" height="19" viewBox="0 0 18 19" fill="none" xmlns="http://www.w3.org/2000/svg">
<path d="M13.712 3.5969C13.5094 3.5969 13.3113 3.66033 13.1428 3.77917C12.9743 3.89801 12.843 4.06692 12.7654 4.26454C12.6879 4.46217 12.6676 4.67962 12.7071 4.88942C12.7467 5.09921 12.8443 5.29192 12.9875 5.44317C13.1308 5.59443 13.3134 5.69743 13.5122 5.73916C13.7109 5.78089 13.9169 5.75948 14.1041 5.67762C14.2914 5.59576 14.4514 5.45714 14.564 5.27928C14.6766 5.10143 14.7366 4.89233 14.7366 4.67842C14.7366 4.39159 14.6287 4.1165 14.4366 3.91367C14.2444 3.71085 13.9838 3.5969 13.712 3.5969ZM17.6397 5.77797C17.6231 5.03019 17.4904 4.29034 17.2469 3.58789C17.0298 2.98686 16.6919 2.44263 16.2565 1.99265C15.8337 1.53068 15.3169 1.17626 14.7452 0.956187C14.0815 0.69136 13.3798 0.548102 12.6704 0.532592C11.7653 0.478516 11.475 0.478516 9.15258 0.478516C6.83016 0.478516 6.53986 0.478516 5.63479 0.532592C4.92539 0.548102 4.2237 0.69136 3.55998 0.956187C2.98934 1.17848 2.47299 1.5326 2.0487 1.99265C1.61104 2.43893 1.27527 2.98444 1.06679 3.58789C0.8159 4.28848 0.680182 5.02915 0.665488 5.77797C0.614258 6.73331 0.614258 7.03974 0.614258 9.49119C0.614258 11.9426 0.614258 12.2491 0.665488 13.2044C0.680182 13.9532 0.8159 14.6939 1.06679 15.3945C1.27527 15.9979 1.61104 16.5435 2.0487 16.9897C2.47299 17.4498 2.98934 17.8039 3.55998 18.0262C4.2237 18.291 4.92539 18.4343 5.63479 18.4498C6.53986 18.5039 6.83016 18.5039 9.15258 18.5039C11.475 18.5039 11.7653 18.5039 12.6704 18.4498C13.3798 18.4343 14.0815 18.291 14.7452 18.0262C15.3169 17.8061 15.8337 17.4517 16.2565 16.9897C16.6938 16.5414 17.032 15.9967 17.2469 15.3945C17.4904 14.692 17.6231 13.9522 17.6397 13.2044C17.6397 12.2491 17.6909 11.9426 17.6909 9.49119C17.6909 7.03974 17.6909 6.73331 17.6397 5.77797ZM16.1028 13.0963C16.0966 13.6684 15.9984 14.2352 15.8125 14.7726C15.6761 15.1648 15.4572 15.5193 15.1721 15.8091C14.8952 16.107 14.5601 16.3376 14.1902 16.485C13.6811 16.6813 13.1441 16.7849 12.6021 16.7915C11.7482 16.8365 11.4323 16.8455 9.18674 16.8455C6.94116 16.8455 6.62524 16.8455 5.77141 16.7915C5.20864 16.8026 4.64827 16.7111 4.11497 16.5211C3.7613 16.3661 3.4416 16.136 3.17576 15.8451C2.89236 15.5556 2.67613 15.2009 2.54392 14.8087C2.33546 14.2635 2.21984 13.6838 2.20239 13.0963C2.20239 12.195 2.15116 11.8615 2.15116 9.49119C2.15116 7.12086 2.15116 6.78739 2.20239 5.88612C2.20621 5.30125 2.30737 4.72163 2.50123 4.17371C2.65154 3.7933 2.88226 3.45419 3.17576 3.18232C3.43516 2.87243 3.75575 2.62632 4.11497 2.4613C4.63543 2.26306 5.18397 2.15945 5.73725 2.15487C6.59109 2.15487 6.907 2.1008 9.15258 2.1008C11.3982 2.1008 11.7141 2.1008 12.5679 2.15487C13.1099 2.16144 13.6469 2.26505 14.156 2.4613C14.544 2.61331 14.8923 2.86043 15.1721 3.18232C15.4519 3.45917 15.6705 3.79764 15.8125 4.17371C16.0022 4.72253 16.1005 5.3019 16.1028 5.88612C16.1455 6.78739 16.154 7.12086 16.154 9.49119C16.154 11.8615 16.1455 12.195 16.1028 13.0963ZM9.15258 4.86769C8.28663 4.86947 7.44062 5.14215 6.72143 5.65127C6.00224 6.16039 5.44215 6.8831 5.11194 7.72809C4.78172 8.57308 4.6962 9.50243 4.86617 10.3987C5.03614 11.295 5.45398 12.118 6.0669 12.7637C6.67981 13.4094 7.4603 13.8488 8.30973 14.0265C9.15916 14.2042 10.0394 14.1121 10.8393 13.7619C11.6392 13.4117 12.3228 12.8191 12.8037 12.0589C13.2846 11.2988 13.5413 10.4053 13.5413 9.49119C13.5424 8.88293 13.4296 8.28044 13.2093 7.71836C12.9891 7.15628 12.6657 6.64572 12.2579 6.21603C11.85 5.78634 11.3657 5.44601 10.8328 5.21461C10.2998 4.98321 9.72883 4.86531 9.15258 4.86769ZM9.15258 12.4924C8.59024 12.4924 8.04052 12.3164 7.57295 11.9866C7.10538 11.6568 6.74095 11.1881 6.52575 10.6397C6.31055 10.0913 6.25425 9.48786 6.36395 8.90568C6.47366 8.3235 6.74446 7.78874 7.14209 7.36901C7.53973 6.94928 8.04635 6.66344 8.59789 6.54764C9.14943 6.43184 9.72111 6.49127 10.2407 6.71843C10.7602 6.94558 11.2042 7.33026 11.5167 7.8238C11.8291 8.31735 11.9958 8.89761 11.9958 9.49119C11.9958 9.88532 11.9223 10.2756 11.7794 10.6397C11.6365 11.0038 11.4271 11.3347 11.1631 11.6134C10.8991 11.8921 10.5856 12.1131 10.2407 12.264C9.89569 12.4148 9.52597 12.4924 9.15258 12.4924Z" fill="white"/>
</svg>
