<svg width="18" height="18" viewBox="0 0 18 18" fill="none" xmlns="http://www.w3.org/2000/svg">
<path d="M2.42532 4.27756H2.4007C2.13272 4.29372 1.86429 4.25446 1.61216 4.16223C1.36003 4.07 1.12962 3.92677 0.93533 3.7415C0.741035 3.55623 0.587024 3.33289 0.482913 3.08543C0.378802 2.83797 0.326828 2.57171 0.330235 2.30326C0.333643 2.03481 0.39236 1.76995 0.502719 1.52521C0.613078 1.28048 0.772709 1.06112 0.971645 0.880841C1.17058 0.700563 1.40455 0.563235 1.65893 0.477432C1.91332 0.39163 2.18267 0.359196 2.45015 0.382155C2.71897 0.362687 2.9889 0.399045 3.24298 0.488943C3.49706 0.57884 3.72979 0.720333 3.92654 0.904525C4.12329 1.08872 4.27981 1.31162 4.38625 1.55923C4.49269 1.80684 4.54675 2.07378 4.54503 2.34329C4.54331 2.6128 4.48585 2.87904 4.37626 3.12527C4.26667 3.3715 4.10733 3.59239 3.90824 3.77406C3.70916 3.95573 3.47464 4.09424 3.21943 4.18089C2.96423 4.26754 2.69386 4.30045 2.42532 4.27756Z" fill="white"/>
<path d="M4.18469 6.90332H0.689453V17.389H4.18469V6.90332Z" fill="white"/>
<path d="M13.3571 6.90332C12.7683 6.90493 12.1874 7.03964 11.6578 7.29739C11.1283 7.55515 10.6639 7.92927 10.2993 8.39179V6.90332H6.80469V17.389H10.2993V12.5831C10.2993 12.1196 10.4834 11.6751 10.8111 11.3473C11.1388 11.0196 11.5832 10.8355 12.0467 10.8355C12.5101 10.8355 12.9545 11.0196 13.2822 11.3473C13.6099 11.6751 13.794 12.1196 13.794 12.5831V17.389H17.2886V10.8355C17.2886 10.3191 17.1869 9.80776 16.9894 9.3307C16.7918 8.85363 16.5022 8.42015 16.1371 8.05502C15.772 7.68988 15.3386 7.40024 14.8617 7.20264C14.3847 7.00503 13.8734 6.90332 13.3571 6.90332Z" fill="white"/>
</svg>
