<svg width="22" height="22" viewBox="0 0 22 22" fill="none" xmlns="http://www.w3.org/2000/svg">
<path d="M16.7104 14.0031C16.0285 13.3299 15.1773 13.3299 14.4997 14.0031C13.9829 14.5156 13.4661 15.0281 12.9579 15.5493C12.8189 15.6926 12.7017 15.723 12.5323 15.6275C12.1979 15.4451 11.8417 15.2974 11.5203 15.0976C10.022 14.1551 8.76678 12.9434 7.65494 11.5797C7.10335 10.9021 6.61258 10.1768 6.26947 9.36031C6.19998 9.19527 6.21301 9.08669 6.34765 8.95205C6.86448 8.45259 7.36829 7.9401 7.87644 7.4276C8.58437 6.71533 8.58437 5.88144 7.87209 5.16482C7.46818 4.75656 7.06427 4.35699 6.66035 3.94874C6.24341 3.53179 5.83081 3.11051 5.40952 2.69791C4.72765 2.03341 3.87639 2.03341 3.19886 2.70225C2.67768 3.21474 2.17822 3.74027 1.64835 4.24407C1.15758 4.70879 0.910017 5.27774 0.857899 5.94224C0.775379 7.02369 1.04031 8.04433 1.41382 9.03891C2.17822 11.0976 3.34218 12.926 4.75371 14.6025C6.66035 16.8696 8.93617 18.6633 11.5985 19.9576C12.7972 20.5396 14.0394 20.9869 15.3901 21.0608C16.3195 21.1129 17.1274 20.8784 17.7745 20.153C18.2175 19.6579 18.7169 19.2062 19.186 18.7328C19.8809 18.0292 19.8853 17.178 19.1947 16.4831C18.3695 15.6535 17.54 14.8283 16.7104 14.0031Z" fill="white"/>
<path d="M15.8808 10.5413L17.4835 10.2677C17.2316 8.79537 16.5366 7.46203 15.4813 6.4023C14.3651 5.2861 12.9535 4.58251 11.3987 4.36536L11.1729 5.97667C12.3759 6.14605 13.4704 6.68894 14.3347 7.55323C15.1512 8.36974 15.6854 9.40342 15.8808 10.5413Z" fill="white"/>
<path d="M18.3872 3.57526C16.537 1.72508 14.196 0.556771 11.6118 0.196289L11.386 1.8076C13.6184 2.12031 15.6423 3.13226 17.2406 4.7262C18.7563 6.24196 19.7509 8.15729 20.1114 10.2637L21.714 9.9901C21.2927 7.54925 20.1418 5.33424 18.3872 3.57526Z" fill="white"/>
</svg>
