<svg width="16" height="14" viewBox="0 0 16 14" fill="none" xmlns="http://www.w3.org/2000/svg">
<path d="M1.58301 7.01965H14.8648" stroke="white" stroke-width="2" stroke-linecap="round" stroke-linejoin="round"/>
<mask id="path-2-inside-1_10_213" fill="white">
<path d="M8.22363 0.379028L14.8646 7.01995L8.22363 13.6609"/>
</mask>
<path d="M9.63785 -1.03519C8.8568 -1.81623 7.59047 -1.81623 6.80942 -1.03519C6.02837 -0.254137 6.02837 1.01219 6.80942 1.79324L9.63785 -1.03519ZM14.8646 7.01995L16.2788 8.43416C17.0598 7.65311 17.0598 6.38678 16.2788 5.60573L14.8646 7.01995ZM6.80942 12.2467C6.02837 13.0277 6.02837 14.294 6.80942 15.0751C7.59047 15.8561 8.8568 15.8561 9.63785 15.0751L6.80942 12.2467ZM6.80942 1.79324L13.4503 8.43416L16.2788 5.60573L9.63785 -1.03519L6.80942 1.79324ZM13.4503 5.60573L6.80942 12.2467L9.63785 15.0751L16.2788 8.43416L13.4503 5.60573Z" fill="white" mask="url(#path-2-inside-1_10_213)"/>
</svg>
