<svg width="20" height="19" viewBox="0 0 20 19" fill="none" xmlns="http://www.w3.org/2000/svg">
    <path
        d="M5.17432 18.2326C4.96505 18.2326 4.75724 18.1675 4.57989 18.0398C4.24952 17.8013 4.09519 17.3914 4.1851 16.9958L5.41391 11.6043L1.24658 7.96402C0.940258 7.69766 0.823236 7.27584 0.949002 6.88986C1.07477 6.50462 1.41694 6.23187 1.82208 6.19456L7.33595 5.69595L9.51594 0.614448C9.67668 0.241105 10.0428 0 10.4495 0C10.8562 0 11.2223 0.241105 11.383 0.613578L13.563 5.69595L19.076 6.19456C19.482 6.231 19.8242 6.50462 19.95 6.88986C20.0758 7.27511 19.9595 7.69766 19.6531 7.96402L15.4858 11.6035L16.7146 16.995C16.8047 17.3914 16.6502 17.8013 16.32 18.0391C15.9905 18.2768 15.5511 18.2951 15.2041 18.0874L10.4495 15.2573L5.69488 18.089C5.53413 18.1841 5.35503 18.2326 5.17432 18.2326ZM10.4495 14.0381C10.6302 14.0381 10.8092 14.0864 10.97 14.1815L15.4572 16.8547L14.2975 11.766C14.2147 11.4038 14.3382 11.0257 14.6191 10.7806L18.554 7.34333L13.3481 6.87245C12.9733 6.83833 12.6509 6.60362 12.5044 6.25959L10.4495 1.4642L8.39206 6.26032C8.24721 6.60202 7.92485 6.83674 7.55091 6.87085L2.34423 7.34174L6.27897 10.779C6.56081 11.0248 6.6841 11.4022 6.60059 11.7652L5.44174 16.8539L9.92894 14.1815C10.0897 14.0864 10.2688 14.0381 10.4495 14.0381ZM7.29384 5.79422C7.29384 5.79422 7.29384 5.79509 7.29296 5.79582L7.29384 5.79422ZM13.6035 5.7919L13.6044 5.7935C13.6044 5.79262 13.6044 5.79262 13.6035 5.7919Z"
        fill="#404F7A" />
</svg>