<svg width="22" height="18" viewBox="0 0 22 18" fill="none" xmlns="http://www.w3.org/2000/svg">
<path d="M21.1537 2.39938C20.3841 2.7418 19.5615 2.97305 18.6946 3.07978C19.5792 2.54613 20.2603 1.7012 20.5787 0.696164C19.7516 1.18979 18.8361 1.55 17.8587 1.74122C17.0758 0.900728 15.9613 0.375977 14.7317 0.375977C12.3655 0.375977 10.4504 2.30599 10.4504 4.68516C10.4504 5.02314 10.4858 5.35222 10.5609 5.66796C7.00055 5.49008 3.84263 3.77352 1.73292 1.1631C1.36583 1.79903 1.15353 2.54169 1.15353 3.32881C1.15353 4.82302 1.91426 6.14379 3.0642 6.91758C2.35655 6.89979 1.69312 6.70412 1.11815 6.37949V6.43285C1.11815 8.52296 2.59538 10.2618 4.55471 10.6575C4.19645 10.7554 3.81609 10.8087 3.42688 10.8087C3.15266 10.8087 2.88287 10.7821 2.62192 10.7287C3.16593 12.4408 4.74931 13.686 6.6246 13.7216C5.16064 14.8778 3.31188 15.5671 1.30391 15.5671C0.958924 15.5671 0.618364 15.5448 0.282227 15.5048C2.17079 16.7411 4.42202 17.4526 6.8369 17.4526C14.7229 17.4526 19.0307 10.8843 19.0307 5.18768C19.0307 5.0009 19.0263 4.81413 19.0174 4.6318C19.8534 4.02255 20.5787 3.26656 21.1537 2.39938Z" fill="white"/>
</svg>
